<?xml version="1.0" encoding="UTF-8" standalone="no"?>
<!DOCTYPE svg PUBLIC "-//W3C//DTD SVG 1.1//EN" "http://www.w3.org/Graphics/SVG/1.1/DTD/svg11.dtd">
<svg width="100%" height="100%" viewBox="0 0 493 148" version="1.1" xmlns="http://www.w3.org/2000/svg" xmlns:xlink="http://www.w3.org/1999/xlink" xml:space="preserve" xmlns:serif="http://www.serif.com/" style="fill-rule:evenodd;clip-rule:evenodd;stroke-linejoin:round;stroke-miterlimit:1.41421;">
    <g id="Layer-1" serif:id="Layer 1" transform="matrix(1,0,0,1,-3.5,-176)">
        <g transform="matrix(1,0,0,1,0.02128,-0.08096)">
            <path d="M84.99,323.741C80.167,324.214 75.149,324.211 70.357,323.741C32.93,320.068 3.686,288.508 3.686,250.11C3.686,209.247 36.811,176.123 77.674,176.123C118.536,176.123 151.662,209.247 151.662,250.11C151.662,288.508 122.419,320.068 84.99,323.741ZM110.075,276.498C90.573,264.581 66.398,261.808 38.213,268.252C35.727,268.817 34.176,271.29 34.746,273.773C35.311,276.253 37.784,277.809 40.267,277.239C66.022,271.357 87.889,273.755 105.264,284.373C107.437,285.702 110.276,285.02 111.605,282.84C112.933,280.666 112.25,277.825 110.075,276.498ZM118.761,254.763C95.923,240.729 62.518,236.78 35.646,244.933C32.601,245.862 30.88,249.076 31.798,252.129C32.725,255.172 35.948,256.892 38.999,255.971C62.522,248.83 92.841,252.372 112.725,264.593C115.436,266.261 118.986,265.409 120.658,262.694C122.325,259.985 121.472,256.432 118.761,254.763ZM128.503,229.813C101.047,213.515 57.6,211.982 31.466,219.915C27.807,221.027 25.746,224.89 26.852,228.549C27.961,232.204 31.826,234.269 35.483,233.159C58.251,226.25 97.589,227.553 121.439,241.716C124.72,243.669 128.97,242.583 130.921,239.295C132.87,236.012 131.793,231.766 128.503,229.813Z" style="fill:rgb(29,185,84);fill-rule:nonzero;"/>
        </g>
        <g transform="matrix(1,0,0,1,-0.620352,0.0096)">
            <path d="M419.194,284.456L407.755,284.456C407.295,284.456 406.921,284.08 406.921,283.616L406.921,244.381L401.426,244.381C400.965,244.381 400.587,244.004 400.587,243.542L400.587,233.662C400.587,233.2 400.965,232.824 401.426,232.824L406.921,232.824L406.921,230.403C406.921,219.154 412.506,213.205 423.072,213.205C427.412,213.205 430.312,213.897 432.578,214.57C432.933,214.679 433.171,215.006 433.171,215.373L433.171,225.012C433.171,225.281 433.045,225.535 432.825,225.694C432.61,225.851 432.335,225.893 432.069,225.809C429.924,225.094 428.008,224.62 425.624,224.62C421.626,224.62 419.843,226.694 419.843,231.344L419.843,232.924L439.384,232.924C439.73,232.924 440.043,233.139 440.165,233.462L453.526,268.329L465.724,233.485C465.842,233.151 466.16,232.924 466.516,232.924L478.425,232.924C478.703,232.924 478.956,233.06 479.113,233.288C479.271,233.517 479.3,233.809 479.201,234.066L459.356,285.345C455.241,295.929 450.572,299.864 442.126,299.864C437.611,299.864 433.957,298.928 429.91,296.736C429.522,296.528 429.365,296.056 429.55,295.654L433.426,287.148C433.519,286.936 433.702,286.774 433.921,286.697C434.143,286.628 434.384,286.648 434.589,286.76C436.758,287.947 438.88,288.548 440.896,288.548C443.389,288.548 445.215,287.728 447.072,283.606L430.711,244.381L420.032,244.381L420.032,283.616C420.032,284.08 419.656,284.456 419.194,284.456ZM243.599,299.578L232.161,299.578C231.698,299.578 231.324,299.203 231.324,298.741L231.324,233.712C231.324,233.251 231.698,232.875 232.161,232.875L243.599,232.875C244.061,232.875 244.435,233.251 244.435,233.712L244.435,239.565C248.793,234.366 254.078,231.828 260.519,231.828C272.491,231.828 284.609,241.046 284.609,258.665C284.609,276.281 272.491,285.495 260.519,285.495C254.078,285.495 248.793,283.106 244.435,278.214L244.435,298.741C244.435,299.202 244.061,299.577 243.599,299.578ZM315.671,231.828C300.254,231.828 288.178,243.7 288.178,258.856C288.178,273.848 300.172,285.594 315.482,285.594C330.953,285.594 343.068,273.762 343.068,258.666C343.068,243.616 331.035,231.828 315.671,231.828ZM204.981,244.427C192.207,241.38 189.931,239.242 189.931,234.749C189.931,230.505 193.928,227.65 199.871,227.65C205.631,227.65 211.342,229.82 217.331,234.284C217.513,234.419 217.741,234.473 217.963,234.438C218.186,234.405 218.384,234.283 218.515,234.097L224.754,225.304C225.009,224.942 224.939,224.442 224.593,224.166C217.468,218.448 209.44,215.667 200.06,215.667C186.267,215.667 176.631,223.944 176.631,235.788C176.631,248.488 184.944,252.984 199.305,256.456C211.529,259.272 213.594,261.63 213.594,265.849C213.594,270.521 209.421,273.427 202.707,273.427C195.251,273.427 189.169,270.915 182.365,265.024C182.196,264.877 181.963,264.81 181.75,264.823C181.526,264.842 181.32,264.947 181.177,265.118L174.182,273.441C173.89,273.787 173.925,274.303 174.265,274.602C182.182,281.669 191.917,285.402 202.423,285.402C217.288,285.402 226.892,277.28 226.892,264.711C226.892,254.087 220.546,248.212 204.981,244.427ZM362.566,219.167C363.027,219.167 363.4,219.543 363.4,220.004L363.4,232.874L375.988,232.874C376.449,232.874 376.822,233.25 376.822,233.711L376.822,243.543C376.822,244.004 376.449,244.38 375.988,244.38L363.4,244.38L363.4,268.026C363.4,271.76 365.039,273.426 368.709,273.426C371.09,273.426 373.219,272.915 375.423,271.805C375.679,271.679 375.988,271.688 376.238,271.843C376.484,271.996 376.635,272.268 376.635,272.557L376.635,281.918C376.635,282.217 376.472,282.498 376.212,282.643C373.004,284.463 369.6,285.309 365.497,285.309C355.405,285.309 350.29,280.098 350.29,269.817L350.29,244.38L344.789,244.38C344.329,244.38 343.957,244.004 343.957,243.543L343.957,233.711C343.957,233.25 344.329,232.874 344.789,232.874L350.29,232.874L350.29,220.004C350.29,219.543 350.666,219.167 351.129,219.167L362.566,219.167ZM394.419,284.454L382.981,284.454C382.518,284.454 382.142,284.079 382.142,283.617L382.142,233.711C382.142,233.25 382.518,232.874 382.981,232.874L394.419,232.874C394.88,232.874 395.256,233.25 395.256,233.711L395.256,283.617C395.256,284.079 394.88,284.454 394.419,284.454ZM315.671,273.988C307.47,273.988 301.289,267.399 301.289,258.666C301.289,249.892 307.257,243.527 315.482,243.527C323.733,243.527 329.958,250.116 329.958,258.856C329.958,267.627 323.95,273.988 315.671,273.988ZM271.309,258.665C271.309,267.635 265.783,273.895 257.873,273.895C250.05,273.895 244.15,267.35 244.15,258.665C244.15,249.98 250.05,243.435 257.873,243.435C259.737,243.435 261.479,243.802 263.05,244.482C268.039,246.641 271.309,251.952 271.309,258.665ZM488.967,248.919C484.44,248.919 480.917,245.283 480.917,240.868C480.917,236.453 484.485,232.777 489.009,232.777C493.537,232.777 497.06,236.412 497.06,240.822C497.06,245.238 493.493,248.919 488.967,248.919ZM489.009,233.576C484.887,233.576 481.767,236.854 481.767,240.868C481.767,244.88 484.865,248.114 488.967,248.114C493.09,248.114 496.213,244.838 496.213,240.822C496.213,236.81 493.114,233.576 489.009,233.576ZM487.34,244.838L485.732,244.838L485.732,236.389L489.501,236.389C491.464,236.389 492.756,237.394 492.756,239.084C492.756,240.469 491.955,241.315 490.794,241.651L493.072,244.838L491.151,244.838L489.102,241.915L487.34,241.915L487.34,244.838ZM489.436,237.838L487.34,237.838L487.34,240.511L489.436,240.511C490.481,240.511 491.105,239.999 491.105,239.174C491.105,238.303 490.481,237.838 489.436,237.838ZM388.756,210.151C393.285,210.151 396.962,213.827 396.962,218.354C396.962,222.882 393.285,226.557 388.756,226.557C384.226,226.557 380.549,222.882 380.549,218.354C380.549,213.827 384.226,210.151 388.756,210.151Z"/>
        </g>
    </g>
</svg>
